<svg xmlns="http://www.w3.org/2000/svg" width="77" height="77" viewBox="0 0 77 77">
  <g fill="none" fill-rule="evenodd">
    <polygon points="0 0 77 0 77 77 0 77"/>
    <path fill="#000" fill-rule="nonzero" d="M59.675,21 C55.055,21 50.6916667,22.8215613 47.5795833,25.9767658 L38.5,34.1412639 L33.6233333,38.5 L33.6554167,38.5 L25.025,46.2741636 C22.9716667,48.355948 20.2445833,49.4944238 17.325,49.4944238 C11.3254167,49.4944238 6.44875,44.5827138 6.44875,38.5 C6.44875,32.4172862 11.3254167,27.5055762 17.325,27.5055762 C20.2445833,27.5055762 22.9716667,28.644052 25.1533333,30.855948 L28.77875,34.1087361 L33.6233333,29.75 L29.5808333,26.1394052 C26.3083333,22.8215613 21.945,21 17.325,21 C7.76416667,21 0,28.8717472 0,38.5 C0,48.1282528 7.76416667,56 17.325,56 C21.945,56 26.3083333,54.1784387 29.4204167,51.0232342 L38.5,42.8912639 L38.5320833,42.9237918 L43.3766667,38.5 L43.3445833,38.5 L51.975,30.7258364 C54.0283333,28.644052 56.7554167,27.5055762 59.675,27.5055762 C65.6745833,27.5055762 70.55125,32.4172862 70.55125,38.5 C70.55125,44.5827138 65.6745833,49.4944238 59.675,49.4944238 C56.7875,49.4944238 54.0283333,48.355948 51.8466667,46.144052 L48.1891667,42.8587361 L43.3445833,47.2174721 L47.4191667,50.8605948 C50.6916667,54.1459108 55.0229167,55.9674721 59.675,55.9674721 C69.2358333,55.9674721 77,48.1282528 77,38.4674721 C77,28.8066914 69.2358333,21 59.675,21 L59.675,21 Z"/>
  </g>
</svg>
