<?xml version="1.0" encoding="utf-8"?>
<!-- Generator: Adobe Illustrator 16.0.0, SVG Export Plug-In . SVG Version: 6.00 Build 0)  -->
<!DOCTYPE svg PUBLIC "-//W3C//DTD SVG 1.1//EN" "http://www.w3.org/Graphics/SVG/1.1/DTD/svg11.dtd">
<svg version="1.1" id="Layer_1" xmlns="http://www.w3.org/2000/svg" xmlns:xlink="http://www.w3.org/1999/xlink" x="0px" y="0px"
	 width="62.078px" height="62.079px" viewBox="0 0 62.078 62.079" enable-background="new 0 0 62.078 62.079" xml:space="preserve">
<g>
	<defs>
		<path id="SVGID_1_" d="M49.052,36.995l-12.41-6.242c-0.465-0.193-0.957-0.304-1.476-0.304H33.09V13.877
			c0-2.293-1.833-4.143-4.1-4.143c-2.27,0-4.101,1.85-4.101,4.143v29.663c-9.84-2.1-9.676-2.072-10.031-2.072
			c-0.848,0-1.613,0.359-2.16,0.912l-2.159,2.209l13.502,13.645c0.738,0.745,1.776,1.215,2.897,1.215h18.56
			c2.05,0,3.636-1.52,3.937-3.535l2.049-14.556c0.027-0.193,0.055-0.387,0.055-0.552C51.539,39.093,50.501,37.602,49.052,36.995z
			 M22.156,24.207V13.877c0-3.812,3.062-6.905,6.834-6.905c3.772,0,6.833,3.094,6.833,6.905v10.329
			c3.309-2.237,5.467-6.021,5.467-10.329C41.289,7,35.795,1.449,28.99,1.449c-6.807,0-12.301,5.552-12.301,12.429
			C16.689,18.186,18.849,21.969,22.156,24.207z"/>
	</defs>
	<clipPath id="SVGID_2_">
		<use xlink:href="#SVGID_1_"  overflow="visible"/>
	</clipPath>
	<g clip-path="url(#SVGID_2_)">
		<defs>
			<rect id="SVGID_3_" x="-689.461" y="-306.551" width="1440" height="2552"/>
		</defs>
		<clipPath id="SVGID_4_">
			<use xlink:href="#SVGID_3_"  overflow="visible"/>
		</clipPath>
		<rect x="5.539" y="-3.551" clip-path="url(#SVGID_4_)" width="51" height="68"/>
	</g>
</g>
</svg>
