<?xml version="1.0" encoding="utf-8"?>
<!-- Generator: Adobe Illustrator 16.0.0, SVG Export Plug-In . SVG Version: 6.00 Build 0)  -->
<!DOCTYPE svg PUBLIC "-//W3C//DTD SVG 1.1//EN" "http://www.w3.org/Graphics/SVG/1.1/DTD/svg11.dtd">
<svg version="1.1" xmlns="http://www.w3.org/2000/svg" xmlns:xlink="http://www.w3.org/1999/xlink" x="0px" y="0px"
	 width="61.155px" height="61.092px" viewBox="0 0 61.155 61.092" enable-background="new 0 0 61.155 61.092" xml:space="preserve">
<g id="grilla" display="none">
	<g display="inline">
		<rect x="-39.94" y="-180.75" fill="none" stroke="#B5B5B5" stroke-width="0.4" stroke-miterlimit="10" width="424" height="424"/>
		<line fill="none" stroke="#B5B5B5" stroke-width="0.4" stroke-miterlimit="10" x1="-39.44" y1="223.25" x2="384.56" y2="223.25"/>
		<line fill="none" stroke="#B5B5B5" stroke-width="0.4" stroke-miterlimit="10" x1="-39.44" y1="202.25" x2="384.56" y2="202.25"/>
		<line fill="none" stroke="#B5B5B5" stroke-width="0.4" stroke-miterlimit="10" x1="-39.44" y1="182.25" x2="384.56" y2="182.25"/>
		<line fill="none" stroke="#B5B5B5" stroke-width="0.4" stroke-miterlimit="10" x1="-39.44" y1="162.25" x2="384.56" y2="162.25"/>
		<line fill="none" stroke="#B5B5B5" stroke-width="0.4" stroke-miterlimit="10" x1="-39.44" y1="142.25" x2="384.56" y2="142.25"/>
		<line fill="none" stroke="#B5B5B5" stroke-width="0.4" stroke-miterlimit="10" x1="-39.44" y1="122.25" x2="384.56" y2="122.25"/>
		<line fill="none" stroke="#B5B5B5" stroke-width="0.4" stroke-miterlimit="10" x1="-39.44" y1="101.25" x2="384.56" y2="101.25"/>
		<line fill="none" stroke="#B5B5B5" stroke-width="0.4" stroke-miterlimit="10" x1="-39.44" y1="81.25" x2="384.56" y2="81.25"/>
		<line fill="none" stroke="#B5B5B5" stroke-width="0.4" stroke-miterlimit="10" x1="-39.44" y1="61.25" x2="384.56" y2="61.25"/>
		<line fill="none" stroke="#B5B5B5" stroke-width="0.4" stroke-miterlimit="10" x1="-39.44" y1="41.25" x2="384.56" y2="41.25"/>
		<line fill="none" stroke="#B5B5B5" stroke-width="0.4" stroke-miterlimit="10" x1="-39.44" y1="21.25" x2="384.56" y2="21.25"/>
		<line fill="none" stroke="#B5B5B5" stroke-width="0.4" stroke-miterlimit="10" x1="-39.44" y1="0.25" x2="384.56" y2="0.25"/>
		<line fill="none" stroke="#B5B5B5" stroke-width="0.4" stroke-miterlimit="10" x1="-39.44" y1="-19.75" x2="384.56" y2="-19.75"/>
		<line fill="none" stroke="#B5B5B5" stroke-width="0.4" stroke-miterlimit="10" x1="-39.44" y1="-39.75" x2="384.56" y2="-39.75"/>
		<line fill="none" stroke="#B5B5B5" stroke-width="0.4" stroke-miterlimit="10" x1="-39.44" y1="-59.75" x2="384.56" y2="-59.75"/>
		<line fill="none" stroke="#B5B5B5" stroke-width="0.4" stroke-miterlimit="10" x1="-39.44" y1="-79.75" x2="384.56" y2="-79.75"/>
		<line fill="none" stroke="#B5B5B5" stroke-width="0.4" stroke-miterlimit="10" x1="-39.44" y1="-99.75" x2="384.56" y2="-99.75"/>
		
			<line fill="none" stroke="#B5B5B5" stroke-width="0.4" stroke-miterlimit="10" x1="-39.44" y1="-120.75" x2="384.56" y2="-120.75"/>
		
			<line fill="none" stroke="#B5B5B5" stroke-width="0.4" stroke-miterlimit="10" x1="-39.44" y1="-140.75" x2="384.56" y2="-140.75"/>
		
			<line fill="none" stroke="#B5B5B5" stroke-width="0.4" stroke-miterlimit="10" x1="-39.44" y1="-160.75" x2="384.56" y2="-160.75"/>
		
			<line fill="none" stroke="#B5B5B5" stroke-width="0.4" stroke-miterlimit="10" x1="363.06" y1="-181.25" x2="363.06" y2="242.75"/>
		
			<line fill="none" stroke="#B5B5B5" stroke-width="0.4" stroke-miterlimit="10" x1="343.06" y1="-181.25" x2="343.06" y2="242.75"/>
		
			<line fill="none" stroke="#B5B5B5" stroke-width="0.4" stroke-miterlimit="10" x1="323.06" y1="-181.25" x2="323.06" y2="242.75"/>
		
			<line fill="none" stroke="#B5B5B5" stroke-width="0.4" stroke-miterlimit="10" x1="303.06" y1="-181.25" x2="303.06" y2="242.75"/>
		
			<line fill="none" stroke="#B5B5B5" stroke-width="0.4" stroke-miterlimit="10" x1="283.06" y1="-181.25" x2="283.06" y2="242.75"/>
		
			<line fill="none" stroke="#B5B5B5" stroke-width="0.4" stroke-miterlimit="10" x1="263.06" y1="-181.25" x2="263.06" y2="242.75"/>
		
			<line fill="none" stroke="#B5B5B5" stroke-width="0.4" stroke-miterlimit="10" x1="242.06" y1="-181.25" x2="242.06" y2="242.75"/>
		
			<line fill="none" stroke="#B5B5B5" stroke-width="0.4" stroke-miterlimit="10" x1="222.06" y1="-181.25" x2="222.06" y2="242.75"/>
		
			<line fill="none" stroke="#B5B5B5" stroke-width="0.4" stroke-miterlimit="10" x1="202.06" y1="-181.25" x2="202.06" y2="242.75"/>
		
			<line fill="none" stroke="#B5B5B5" stroke-width="0.4" stroke-miterlimit="10" x1="182.06" y1="-181.25" x2="182.06" y2="242.75"/>
		
			<line fill="none" stroke="#B5B5B5" stroke-width="0.4" stroke-miterlimit="10" x1="161.06" y1="-181.25" x2="161.06" y2="242.75"/>
		
			<line fill="none" stroke="#B5B5B5" stroke-width="0.4" stroke-miterlimit="10" x1="141.06" y1="-181.25" x2="141.06" y2="242.75"/>
		
			<line fill="none" stroke="#B5B5B5" stroke-width="0.4" stroke-miterlimit="10" x1="121.06" y1="-181.25" x2="121.06" y2="242.75"/>
		
			<line fill="none" stroke="#B5B5B5" stroke-width="0.4" stroke-miterlimit="10" x1="101.06" y1="-181.25" x2="101.06" y2="242.75"/>
		<line fill="none" stroke="#B5B5B5" stroke-width="0.4" stroke-miterlimit="10" x1="81.06" y1="-181.25" x2="81.06" y2="242.75"/>
		<line fill="none" stroke="#B5B5B5" stroke-width="0.4" stroke-miterlimit="10" x1="61.06" y1="-181.25" x2="61.06" y2="242.75"/>
		<line fill="none" stroke="#B5B5B5" stroke-width="0.4" stroke-miterlimit="10" x1="40.06" y1="-181.25" x2="40.06" y2="242.75"/>
		<line fill="none" stroke="#B5B5B5" stroke-width="0.4" stroke-miterlimit="10" x1="20.06" y1="-181.25" x2="20.06" y2="242.75"/>
		<line fill="none" stroke="#B5B5B5" stroke-width="0.4" stroke-miterlimit="10" x1="0.06" y1="-181.25" x2="0.06" y2="242.75"/>
		
			<line fill="none" stroke="#B5B5B5" stroke-width="0.4" stroke-miterlimit="10" x1="-19.94" y1="-181.25" x2="-19.94" y2="242.75"/>
	</g>
	<g display="inline">
		
			<rect x="940.186" y="-180.75" fill="none" stroke="#B5B5B5" stroke-width="0.4" stroke-miterlimit="10" width="424" height="424"/>
		
			<line fill="none" stroke="#B5B5B5" stroke-width="0.4" stroke-miterlimit="10" x1="940.686" y1="223.25" x2="1364.686" y2="223.25"/>
		
			<line fill="none" stroke="#B5B5B5" stroke-width="0.4" stroke-miterlimit="10" x1="940.686" y1="202.25" x2="1364.686" y2="202.25"/>
		
			<line fill="none" stroke="#B5B5B5" stroke-width="0.4" stroke-miterlimit="10" x1="940.686" y1="182.25" x2="1364.686" y2="182.25"/>
		
			<line fill="none" stroke="#B5B5B5" stroke-width="0.4" stroke-miterlimit="10" x1="940.686" y1="162.25" x2="1364.686" y2="162.25"/>
		
			<line fill="none" stroke="#B5B5B5" stroke-width="0.4" stroke-miterlimit="10" x1="940.686" y1="142.25" x2="1364.686" y2="142.25"/>
		
			<line fill="none" stroke="#B5B5B5" stroke-width="0.4" stroke-miterlimit="10" x1="940.686" y1="122.25" x2="1364.686" y2="122.25"/>
		
			<line fill="none" stroke="#B5B5B5" stroke-width="0.4" stroke-miterlimit="10" x1="940.686" y1="101.25" x2="1364.686" y2="101.25"/>
		
			<line fill="none" stroke="#B5B5B5" stroke-width="0.4" stroke-miterlimit="10" x1="940.686" y1="81.25" x2="1364.686" y2="81.25"/>
		
			<line fill="none" stroke="#B5B5B5" stroke-width="0.4" stroke-miterlimit="10" x1="940.686" y1="61.25" x2="1364.686" y2="61.25"/>
		
			<line fill="none" stroke="#B5B5B5" stroke-width="0.4" stroke-miterlimit="10" x1="940.686" y1="41.25" x2="1364.686" y2="41.25"/>
		
			<line fill="none" stroke="#B5B5B5" stroke-width="0.4" stroke-miterlimit="10" x1="940.686" y1="21.25" x2="1364.686" y2="21.25"/>
		<line fill="none" stroke="#B5B5B5" stroke-width="0.4" stroke-miterlimit="10" x1="940.686" y1="0.25" x2="1364.686" y2="0.25"/>
		
			<line fill="none" stroke="#B5B5B5" stroke-width="0.4" stroke-miterlimit="10" x1="940.686" y1="-19.75" x2="1364.686" y2="-19.75"/>
		
			<line fill="none" stroke="#B5B5B5" stroke-width="0.4" stroke-miterlimit="10" x1="940.686" y1="-39.75" x2="1364.686" y2="-39.75"/>
		
			<line fill="none" stroke="#B5B5B5" stroke-width="0.4" stroke-miterlimit="10" x1="940.686" y1="-59.75" x2="1364.686" y2="-59.75"/>
		
			<line fill="none" stroke="#B5B5B5" stroke-width="0.4" stroke-miterlimit="10" x1="940.686" y1="-79.75" x2="1364.686" y2="-79.75"/>
		
			<line fill="none" stroke="#B5B5B5" stroke-width="0.4" stroke-miterlimit="10" x1="940.686" y1="-99.75" x2="1364.686" y2="-99.75"/>
		
			<line fill="none" stroke="#B5B5B5" stroke-width="0.4" stroke-miterlimit="10" x1="940.686" y1="-120.75" x2="1364.686" y2="-120.75"/>
		
			<line fill="none" stroke="#B5B5B5" stroke-width="0.4" stroke-miterlimit="10" x1="940.686" y1="-140.75" x2="1364.686" y2="-140.75"/>
		
			<line fill="none" stroke="#B5B5B5" stroke-width="0.4" stroke-miterlimit="10" x1="940.686" y1="-160.75" x2="1364.686" y2="-160.75"/>
		
			<line fill="none" stroke="#B5B5B5" stroke-width="0.4" stroke-miterlimit="10" x1="1343.186" y1="-181.25" x2="1343.186" y2="242.75"/>
		
			<line fill="none" stroke="#B5B5B5" stroke-width="0.4" stroke-miterlimit="10" x1="1323.186" y1="-181.25" x2="1323.186" y2="242.75"/>
		
			<line fill="none" stroke="#B5B5B5" stroke-width="0.4" stroke-miterlimit="10" x1="1303.186" y1="-181.25" x2="1303.186" y2="242.75"/>
		
			<line fill="none" stroke="#B5B5B5" stroke-width="0.4" stroke-miterlimit="10" x1="1283.186" y1="-181.25" x2="1283.186" y2="242.75"/>
		
			<line fill="none" stroke="#B5B5B5" stroke-width="0.4" stroke-miterlimit="10" x1="1263.186" y1="-181.25" x2="1263.186" y2="242.75"/>
		
			<line fill="none" stroke="#B5B5B5" stroke-width="0.4" stroke-miterlimit="10" x1="1243.186" y1="-181.25" x2="1243.186" y2="242.75"/>
		
			<line fill="none" stroke="#B5B5B5" stroke-width="0.4" stroke-miterlimit="10" x1="1222.186" y1="-181.25" x2="1222.186" y2="242.75"/>
		
			<line fill="none" stroke="#B5B5B5" stroke-width="0.4" stroke-miterlimit="10" x1="1202.186" y1="-181.25" x2="1202.186" y2="242.75"/>
		
			<line fill="none" stroke="#B5B5B5" stroke-width="0.4" stroke-miterlimit="10" x1="1182.186" y1="-181.25" x2="1182.186" y2="242.75"/>
		
			<line fill="none" stroke="#B5B5B5" stroke-width="0.4" stroke-miterlimit="10" x1="1162.186" y1="-181.25" x2="1162.186" y2="242.75"/>
		
			<line fill="none" stroke="#B5B5B5" stroke-width="0.4" stroke-miterlimit="10" x1="1141.186" y1="-181.25" x2="1141.186" y2="242.75"/>
		
			<line fill="none" stroke="#B5B5B5" stroke-width="0.4" stroke-miterlimit="10" x1="1121.186" y1="-181.25" x2="1121.186" y2="242.75"/>
		
			<line fill="none" stroke="#B5B5B5" stroke-width="0.4" stroke-miterlimit="10" x1="1101.186" y1="-181.25" x2="1101.186" y2="242.75"/>
		
			<line fill="none" stroke="#B5B5B5" stroke-width="0.4" stroke-miterlimit="10" x1="1081.186" y1="-181.25" x2="1081.186" y2="242.75"/>
		
			<line fill="none" stroke="#B5B5B5" stroke-width="0.4" stroke-miterlimit="10" x1="1061.186" y1="-181.25" x2="1061.186" y2="242.75"/>
		
			<line fill="none" stroke="#B5B5B5" stroke-width="0.4" stroke-miterlimit="10" x1="1041.186" y1="-181.25" x2="1041.186" y2="242.75"/>
		
			<line fill="none" stroke="#B5B5B5" stroke-width="0.4" stroke-miterlimit="10" x1="1020.186" y1="-181.25" x2="1020.186" y2="242.75"/>
		
			<line fill="none" stroke="#B5B5B5" stroke-width="0.4" stroke-miterlimit="10" x1="1000.186" y1="-181.25" x2="1000.186" y2="242.75"/>
		
			<line fill="none" stroke="#B5B5B5" stroke-width="0.4" stroke-miterlimit="10" x1="980.186" y1="-181.25" x2="980.186" y2="242.75"/>
		
			<line fill="none" stroke="#B5B5B5" stroke-width="0.4" stroke-miterlimit="10" x1="960.186" y1="-181.25" x2="960.186" y2="242.75"/>
	</g>
</g>
<g id="Layer_1">
	<g>
		<polygon fill="#FF2400" points="55.102,6.34 55.102,55 6.065,55 6.065,6.564 0.061,0.542 0.061,61 61.106,61 61.106,0.319 		"/>
		<polygon fill="#FF2400" points="44.093,17.136 29.866,31.039 29.691,31.035 29.966,31.039 16.072,16.848 16.072,45 44.093,45 		
			"/>
	</g>
</g>
<g id="Layer_4" display="none">
	<g display="inline">
		<path fill="#3F00FF" d="M372.936,25.104c0.834,0.834,1.252,1.913,1.252,3.235c0,1.292-0.418,2.361-1.252,3.211
			c-0.835,0.851-1.897,1.275-3.188,1.275s-2.354-0.425-3.188-1.275c-0.835-0.85-1.252-1.92-1.252-3.211
			c0-1.322,0.417-2.401,1.252-3.235c0.834-0.834,1.896-1.251,3.188-1.251S372.101,24.27,372.936,25.104z M365.639,35.613h8.359
			v25.552h-8.359V35.613z"/>
		<path fill="#3F00FF" d="M399.597,36.959c2.108,1.086,3.746,2.613,4.912,4.582c1.164,1.968,1.747,4.243,1.747,6.824
			c0,2.614-0.583,4.905-1.747,6.872c-1.166,1.969-2.804,3.495-4.912,4.582c-2.11,1.086-4.551,1.629-7.321,1.629
			s-5.211-0.543-7.32-1.629c-2.11-1.087-3.739-2.613-4.889-4.582c-1.149-1.967-1.724-4.258-1.724-6.872
			c0-2.581,0.574-4.856,1.724-6.824c1.149-1.969,2.778-3.496,4.889-4.582c2.109-1.086,4.55-1.629,7.32-1.629
			S397.487,35.873,399.597,36.959z M388.309,43.879c-1.009,1.165-1.512,2.691-1.512,4.581c0,1.921,0.503,3.464,1.512,4.629
			c1.007,1.165,2.329,1.747,3.967,1.747c1.669,0,3.007-0.582,4.015-1.747s1.512-2.708,1.512-4.629c0-1.89-0.513-3.416-1.535-4.581
			c-1.023-1.165-2.354-1.748-3.991-1.748C390.638,42.131,389.316,42.714,388.309,43.879z"/>
	</g>
	<g display="inline">
		<rect x="347.043" y="49.689" fill="#3F00FF" width="6.464" height="6.471"/>
		<path fill="#3F00FF" d="M342.077,44.723v16.404h16.396V44.723H342.077z M356.781,59.436h-13.014V46.413h13.014V59.436z"/>
	</g>
	<g display="inline">
		<path fill="#3F00FF" d="M1228.862,18.086c1.922,1.923,2.885,4.408,2.885,7.455c0,2.977-0.963,5.441-2.885,7.401
			c-1.925,1.96-4.372,2.939-7.349,2.939c-2.975,0-5.423-0.979-7.345-2.939c-1.924-1.959-2.886-4.424-2.886-7.401
			c0-3.047,0.962-5.532,2.886-7.455c1.922-1.922,4.37-2.884,7.345-2.884C1224.49,15.203,1226.937,16.164,1228.862,18.086z
			 M1212.046,42.304h19.263v58.882h-19.263V42.304z"/>
		<path fill="#3F00FF" d="M1290.3,45.404c4.858,2.504,8.633,6.022,11.319,10.56c2.683,4.535,4.026,9.778,4.026,15.726
			c0,6.025-1.344,11.305-4.026,15.837c-2.687,4.537-6.461,8.054-11.319,10.559c-4.863,2.503-10.486,3.754-16.872,3.754
			c-6.384,0-12.007-1.251-16.868-3.754c-4.863-2.505-8.617-6.021-11.266-10.559c-2.648-4.532-3.973-9.812-3.973-15.837
			c0-5.947,1.324-11.19,3.973-15.726c2.648-4.537,6.402-8.056,11.266-10.56c4.861-2.502,10.484-3.753,16.868-3.753
			C1279.814,41.651,1285.437,42.902,1290.3,45.404z M1264.288,61.353c-2.325,2.684-3.483,6.201-3.483,10.556
			c0,4.427,1.158,7.982,3.483,10.668c2.321,2.684,5.367,4.025,9.141,4.025c3.846,0,6.93-1.342,9.252-4.025
			c2.323-2.686,3.484-6.241,3.484-10.668c0-4.354-1.183-7.872-3.538-10.556c-2.358-2.686-5.426-4.029-9.198-4.029
			C1269.655,57.323,1266.609,58.667,1264.288,61.353z"/>
	</g>
	<g display="inline">
		<rect x="1169.194" y="74.742" fill="#3F00FF" width="14.896" height="14.911"/>
		<path fill="#3F00FF" d="M1157.749,63.295v37.804h37.781V63.295H1157.749z M1191.632,97.2h-29.988V67.191h29.988V97.2z"/>
	</g>
</g>
<g id="Layer_5" display="none">
	<g display="inline">
		<text transform="matrix(1 0 0 1 360.3091 60.667)" fill="#3F00FF" font-family="'Montserrat-Black'" font-size="45.5468">app</text>
	</g>
	<g display="inline">
		<rect x="345.042" y="49.689" fill="#3F00FF" width="6.464" height="6.471"/>
		<path fill="#3F00FF" d="M340.075,44.723v16.404h16.396V44.723H340.075z M354.779,59.436h-13.014V46.413h13.014V59.436z"/>
	</g>
	<g display="inline">
		<text transform="matrix(1 0 0 1 1025.7915 145.6885)" fill="#3F00FF" font-family="'Montserrat-Black'" font-size="58.3126">app</text>
	</g>
	<g display="inline">
		<rect x="1006.245" y="131.633" fill="#3F00FF" width="8.276" height="8.284"/>
		<path fill="#3F00FF" d="M999.885,125.272v21.003h20.992v-21.003H999.885z M1018.712,144.11h-16.662v-16.673h16.662V144.11z"/>
	</g>
</g>
<g id="guías" display="none">
	
		<line display="inline" fill="none" stroke="#00FFFF" stroke-width="0.6" stroke-miterlimit="10" x1="287.31" y1="-13.25" x2="287.31" y2="89"/>
	<rect x="278.81" y="54.375" display="inline" opacity="0.8" fill="#00FFFF" width="1.748" height="12.75"/>
	<rect x="280.56" y="48.5" display="inline" opacity="0.8" fill="#00FFFF" width="1.748" height="12.75"/>
	<rect x="282.248" y="40.688" display="inline" opacity="0.8" fill="#00FFFF" width="1.748" height="12.75"/>
	
		<line display="inline" fill="none" stroke="#00FFFF" stroke-width="0.6" stroke-miterlimit="10" x1="-20.023" y1="31" x2="362.31" y2="31"/>
	
		<line display="inline" fill="none" stroke="#00FFFF" stroke-width="0.6" stroke-miterlimit="10" x1="-20.023" y1="45" x2="362.31" y2="45"/>
	<g display="inline">
		<path fill="#00FFFF" d="M72.312-11.858L30.456,30.147L-11.4-11.858H72.312 M73.757-12.458h-86.603l43.301,43.455L73.757-12.458
			L73.757-12.458z"/>
	</g>
	
		<line display="inline" fill="none" stroke="#00FFFF" stroke-width="0.6" stroke-miterlimit="10" x1="27.206" y1="-29.771" x2="147.414" y2="90.437"/>
	
		<line display="inline" fill="none" stroke="#00FFFF" stroke-width="0.6" stroke-miterlimit="10" x1="89.956" y1="-29.771" x2="210.165" y2="90.437"/>
	
		<line display="inline" fill="none" stroke="#00FFFF" stroke-width="0.6" stroke-miterlimit="10" x1="183.936" y1="-29.771" x2="304.144" y2="90.437"/>
	
		<line display="inline" fill="none" stroke="#00FFFF" stroke-width="0.6" stroke-miterlimit="10" x1="-29.919" y1="-29.771" x2="90.289" y2="90.437"/>
	<line display="inline" fill="none" stroke="#00FFFF" stroke-miterlimit="10" x1="1211.81" y1="-69.5" x2="1211.81" y2="154"/>
	<line display="inline" fill="none" stroke="#00FFFF" stroke-miterlimit="10" x1="1195.644" y1="-69.5" x2="1195.644" y2="154"/>
	<line display="inline" fill="none" stroke="#00FFFF" stroke-miterlimit="10" x1="1157.81" y1="-69.5" x2="1157.81" y2="154"/>
	<line display="inline" fill="none" stroke="#00FFFF" stroke-miterlimit="10" x1="1141.644" y1="-69.5" x2="1141.644" y2="154"/>
</g>
</svg>
