<svg xmlns="http://www.w3.org/2000/svg" width="69" height="67" viewBox="0 0 69 67">
  <defs>
    <filter id="icono-covid-a">
      <feColorMatrix in="SourceGraphic" values="0 0 0 0 1.000000 0 0 0 0 1.000000 0 0 0 0 1.000000 0 0 0 1.000000 0"/>
    </filter>
  </defs>
  <g fill="none" fill-rule="evenodd" filter="url(#icono-covid-a)">
    <g fill="#FFDA00" fill-rule="nonzero" transform="translate(11 13)">
      <path d="M42.2204,19.4593156 C40.4716,19.4071422 38.7244,19.1512444 36.9912,18.8909511 C36.6466,18.83916 36.2514,18.4261689 36.0864,18.0877111 C35.6666,17.2288578 35.3322,16.3275778 35.0322,15.4224756 C34.927,15.1042756 34.8768,14.6339511 35.047,14.3900933 C36.0782,12.9166267 37.154,11.4691511 38.2778,10.0589422 C38.5568,9.70882667 39.0362,9.45063556 39.4788,9.28379556 C40.881,8.7548 41.5798,7.73292889 41.4192,6.31259111 C41.29,5.17070222 40.2264,4.19622667 38.9446,4.04448444 C37.6764,3.89427111 36.4588,4.71088889 35.9814,5.98980444 C35.8638,6.30513778 35.6958,6.66538222 35.4334,6.85955111 C33.9392,7.9636 32.4232,9.04223111 30.8772,10.0784356 C30.6532,10.2286489 30.1884,10.1974978 29.9002,10.0897111 C28.5764,9.59396889 27.2642,9.06516444 25.9752,8.49202222 C25.6694,8.35614222 25.2926,8.02915111 25.2482,7.74707111 C24.9836,6.05764889 24.6976,4.35924444 24.6358,2.65663556 C24.5902,1.40734222 24.2346,0.500137778 22.9994,0.000191111111 C22.6662,0.000191111111 22.3328,0.000191111111 21.9994,0.000191111111 C20.755,0.494977778 20.4074,1.40906222 20.3644,2.65644444 C20.3066,4.32885778 20.0412,5.99936 19.7684,7.65629333 C19.7144,7.98443111 19.2798,8.35767111 18.9252,8.51973333 C17.7022,9.07892444 16.446,9.57734222 15.1804,10.0448 C14.8634,10.1619511 14.4026,10.1965422 14.1146,10.0614267 C13.4116,9.73195111 12.7448,9.32679556 12.0396,8.91571556 C11.389,8.42322222 9.5674,6.89892 9.3136,6.59811111 C9.0354,6.26825333 8.9718,5.78187556 8.7508,5.39736 C8.1782,4.40033333 6.898,3.85834222 5.7808,4.1022 C4.5546,4.36994667 3.6698,5.28747111 3.5736,6.39132889 C3.464,7.64826667 4.1176,8.64835111 5.2194,9.18919556 C5.9344,9.54007556 6.672,9.96931111 7.1916,10.5369111 C8.0628,11.4886444 8.7596,12.5848578 9.5464,13.6088311 C10.148,14.3918133 10.2944,15.1373378 9.7112,16.0365156 C9.3352,16.6163467 9.1552,17.3284267 8.974,18.0024756 C8.8224,18.5670178 8.5266,18.8823511 7.9198,18.9456089 C6.2062,19.1239156 4.4966,19.4115378 2.7794,19.4606533 C1.4734,19.49792 0.517,19.8329378 -0.0006,21.0222222 C-0.0006,21.3408044 -0.0006,21.6593867 -0.0006,21.9777778 C0.5222,23.1588444 1.4656,23.5641911 2.7814,23.5284533 C3.9716,23.4959644 5.1694,23.6266844 6.3604,23.7249156 C7.8606,23.8485644 9.1708,24.2283022 9.2812,26.0018133 C9.2888,26.1231689 9.3402,26.2605778 9.4176,26.3565156 C10.586,27.8011244 9.9356,29.0536667 8.9798,30.2794533 C8.821,30.4831778 8.6912,30.7084978 8.5256,30.90668 C7.5202,32.1104889 6.6556,33.4077511 4.9874,33.98548 C3.84,34.3829911 3.3516,35.68312 3.5978,36.8787111 C3.814,37.9296311 4.8558,38.8081689 6.0578,38.9530311 C7.1814,39.0885289 8.336,38.37492 8.8912,37.37044 C9.282,36.6640933 9.7406,35.9206711 10.3666,35.4197689 C11.5074,34.5074044 12.7708,33.7244222 14.0396,32.9752667 C14.3356,32.8005911 14.8986,32.8778 15.2706,33.0117689 C16.4466,33.4354622 17.568,34.0028711 18.7552,34.3906356 C19.4016,34.6016222 19.784,34.8684133 19.8544,35.5267911 C20.0262,37.1328889 20.3252,38.7345911 20.3652,40.3429822 C20.3964,41.59648 20.7696,42.4969956 22,42.9994267 C22.3334,42.9994267 22.6668,42.9994267 23,42.9994267 C24.2376,42.5000533 24.6006,41.5926578 24.6344,40.3418356 C24.678,38.7322978 24.9746,37.1294489 25.1494,35.5225867 C25.2208,34.8657378 25.5852,34.5634 26.2556,34.3950311 C27.0854,34.1863378 27.9406,33.9340711 28.667,33.5142 C29.7832,32.8688178 30.8152,32.40824 31.9474,33.5474533 C31.9616,33.5250933 31.9738,33.5056 31.9876,33.4836222 C32.6878,33.9419067 34.1836,34.9450489 34.761,35.5174267 C34.8082,35.5642489 34.8492,35.5996044 34.885,35.6248311 C35.4908,36.2021778 36.012,36.8401067 36.337,37.66972 C36.739,38.6956044 38.128,39.1338222 39.2164,38.8935956 C40.4496,38.6212622 41.3314,37.7085156 41.4242,36.6075244 C41.5308,35.3450444 40.8732,34.3592933 39.7808,33.8077467 C39.0138,33.4207467 38.2406,32.9332222 37.6754,32.3182267 C36.8246,31.3928667 36.1712,30.3041067 35.3992,29.3099467 C34.798,28.5355644 34.7518,27.8143111 35.2862,26.9648222 C35.6386,26.4041022 35.8434,25.73636 35.9976,25.0909778 C36.152,24.4419644 36.4858,24.0994933 37.1758,24.0308844 C38.8574,23.8651911 40.5348,23.5810089 42.2194,23.5393467 C43.528,23.50724 44.4778,23.1599911 45,21.9777778 C45,21.6593867 45,21.3408044 45,21.0222222 C44.4766,19.8424933 43.5292,19.4983022 42.2204,19.4593156 Z M42.6418,22.1472933 C42.348,22.2501111 41.9784,22.1314311 41.6512,22.1751956 C39.7804,22.4251689 37.9108,22.6860356 36.0434,22.9608533 C35.3472,23.0632889 35.0086,23.4715022 34.8062,24.1405822 C34.4764,25.2316356 33.9508,26.26784 33.5964,27.3535422 C33.4564,27.7827778 33.3876,28.3549644 33.5702,28.7390978 C34.5988,30.90324 36.0314,32.8122489 37.8694,34.4235067 C38.1448,34.6652622 38.5238,34.8407022 38.8874,34.9393156 C39.669,35.1522133 40.1082,35.6093511 40.065,36.3760889 C40.0236,37.1080444 39.5276,37.5489378 38.7854,37.6186933 C38.0224,37.6907422 37.5234,37.2764133 37.3002,36.5937644 C36.7878,35.02608 35.3604,34.3141911 34.1734,33.2825733 L32.6712,32.40136 C32.6772,32.3919956 32.683,32.3828222 32.689,32.3734578 C32.223,32.11928 31.8334,31.9398267 31.4816,31.7085822 C30.6792,31.1807333 30.0034,31.23864 29.131,31.7387778 C28.007,32.3830133 26.7452,32.8619378 25.482,33.2116711 C24.6348,33.4461644 24.0992,33.7693333 23.9886,34.60296 C23.7176,36.6442178 23.489,38.6912089 23.1722,40.7253956 C23.1202,41.05984 22.707,41.3430667 22.4608,41.6503733 C22.2404,41.3503289 21.9486,41.0747467 21.8224,40.7418311 C21.7154,40.4603244 21.84,40.1073422 21.7932,39.7952578 C21.5214,37.9770267 21.235,36.1607067 20.9398,34.3462978 C20.8426,33.7479289 20.4264,33.4889733 19.8346,33.2779867 C18.3506,32.7497556 16.8814,32.1685867 15.4576,31.5079156 C14.9106,31.2537378 14.4792,31.1589467 13.9926,31.4889956 C12.2108,32.6983467 10.4054,33.8797956 8.676,35.1546978 C8.2244,35.4874222 7.9608,36.0972578 7.709,36.6224311 C7.3976,37.2725911 6.9518,37.7008711 6.1904,37.6175467 C5.448,37.5361333 4.964,37.0853022 4.9304,36.3541111 C4.8972,35.6347689 5.306,35.1780133 6.0374,34.9567067 C6.4022,34.8458622 6.8016,34.7136133 7.075,34.4749156 C8.9414,32.8460756 10.4028,30.917 11.4404,28.7199867 C11.621,28.3373822 11.5356,27.7644311 11.3924,27.3338578 C11.1128,26.4904844 10.5196,25.7111333 10.3934,24.8597333 C10.1808,23.42124 9.313,22.8586089 7.9684,22.7169956 C6.0894,22.5184311 4.2034,22.3770089 2.3296,22.14328 C1.9998,22.1021911 1.715,21.7297156 1.4094,21.51032 C1.707,21.2844267 1.9724,20.9744444 2.3114,20.8569111 C2.6352,20.7445378 3.041,20.8727733 3.4006,20.8249956 C5.2392,20.58152 7.0754,20.3206533 8.9106,20.0540533 C9.6512,19.9464578 9.9962,19.5158844 10.2066,18.81508 C10.5346,17.7238356 11.0636,16.6889689 11.4272,15.60556 C11.562,15.2034622 11.628,14.6631911 11.4562,14.30352 C10.4374,12.1720578 9.048,10.2716489 7.236,8.67988444 C6.9138,8.39684889 6.482,8.18777333 6.0628,8.05476 C5.3366,7.82466222 4.9112,7.39179556 4.9292,6.67226222 C4.9474,5.93973333 5.4256,5.47992 6.1638,5.38474667 C6.9218,5.28689778 7.357,5.71861778 7.703,6.35100444 C8.0372,6.96217778 8.658,8.32136 10.8378,9.77380444 C10.833,9.78030222 10.8284,9.78622667 10.8236,9.79291556 C10.908,9.83782667 10.9884,9.88159111 11.0718,9.92650222 C11.5968,10.2609467 12.2052,10.5990222 12.9142,10.9328933 C12.9182,10.92888 12.9208,10.9244844 12.9244,10.9204711 C13.4134,11.1788533 13.8996,11.4292089 14.393,11.6617911 C14.6372,11.77684 15.0722,11.6155422 15.3818,11.4945689 C16.8798,10.9090044 18.3812,10.3263067 19.8444,9.66792889 C20.2648,9.47872889 20.7438,9.09784444 20.8802,8.70472889 C21.223,7.71668444 21.4648,6.68086222 21.5996,5.64676 C21.7512,4.48365778 21.701,3.29724 21.831,2.13031556 C21.8622,1.85033778 22.2588,1.60762667 22.4874,1.34771556 C22.7244,1.60036444 23.0766,1.81976 23.169,2.11368889 C23.2882,2.49361778 23.1486,2.94005333 23.2084,3.34597333 C23.4674,5.10209333 23.7482,6.85553778 24.0432,8.60668889 C24.1482,9.23009333 24.572,9.51580444 25.2124,9.73500889 C26.6716,10.2343822 28.111,10.8086711 29.497,11.4702978 C30.0798,11.7485556 30.544,11.8418178 31.0514,11.4955244 C32.8568,10.26324 34.6732,9.04299556 36.4298,7.74879111 C36.831,7.45295111 37.0654,6.90159556 37.274,6.42687556 C37.5802,5.72932 38.0486,5.28288444 38.8562,5.38818667 C39.545,5.47800889 40.0136,5.90571556 40.0622,6.59849333 C40.1164,7.37115556 39.6884,7.82982222 38.9154,8.05609778 C38.5518,8.16254667 38.1642,8.31868444 37.8904,8.55929333 C36.0548,10.1716978 34.6586,12.0946578 33.5446,14.2215333 C33.257,14.7704044 33.3114,15.1860711 33.584,15.7263422 C34.0578,16.6648889 34.5026,17.6408933 34.7594,18.6476667 C34.9696,19.4702089 35.3302,19.9737867 36.2076,20.0794711 C38.3442,20.3365156 40.486,20.5564844 42.6146,20.8590133 C42.9666,20.9088933 43.265,21.3006711 43.588,21.5344 C43.2754,21.7444311 42.989,22.0253644 42.6418,22.1472933 Z"/>
      <path d="M19.7569273 19.3375505C18.1579273 18.7961327 16.4365273 19.4204927 15.6761273 20.8419771 15.9811273 21.0200927 16.2885273 21.199546 16.6573273 21.414546 17.9813273 20.3554083 18.7943273 20.188186 19.7419273 20.8020349 20.5331273 21.3149771 20.8601273 22.0362305 20.6361273 22.9480216 20.4221273 23.8181505 19.6569273 24.4711771 18.7373273 24.4878038 17.3431273 24.5132216 16.6709273 23.6297149 16.3915273 22.4830483 15.9315273 22.4830483 15.5463273 22.4830483 15.1599273 22.4830483 15.2593273 24.3941594 16.5251273 25.6535816 18.3187273 25.7753194 20.0955273 25.8955283 21.6859273 24.8054305 22.0193273 23.2186349 22.3777273 21.5112483 21.4369273 19.9064883 19.7569273 19.3375505zM31.3509273 18.4695238C30.8849273 19.6161905 30.1855273 20.0224927 29.3487273 19.7063949 28.6259273 19.4332971 28.2529273 18.664266 28.5233273 17.9955683 28.8691273 17.1414927 29.6049273 16.9756083 31.1025273 17.4432571 31.3353273 17.2217594 31.5923273 16.9792394 31.8965273 16.689706 30.6691273 15.6225416 29.3125273 15.5197238 28.1737273 16.3225816 27.0957273 17.0822483 26.7495273 18.4829016 27.3517273 19.648106 27.9369273 20.7804394 29.2909273 21.3621816 30.5235273 21.0313683 31.8767273 20.6684483 32.6181273 19.8073016 32.5139273 18.4695238 32.1227273 18.4695238 31.7301273 18.4695238 31.3509273 18.4695238zM22.0699273 12.4405416C20.9041273 12.4682527 20.0007273 13.3655194 20.0237273 14.4728171 20.0463273 15.5688394 20.9877273 16.4158438 22.1641273 16.399026 23.3103273 16.3825905 24.2561273 15.4566571 24.2215273 14.3847149 24.1867273 13.2972927 23.2087273 12.4134038 22.0699273 12.4405416zM22.1301273 15.0610571C21.8783273 15.0379327 21.6609273 14.672146 21.4285273 14.4561905 21.6723273 14.2174927 21.8851273 13.8467371 22.1705273 13.7855816 22.3667273 13.7435371 22.6639273 14.1309194 23.0857273 14.4581016 22.6503273 14.7508838 22.3725273 15.0834171 22.1301273 15.0610571zM27.0805273 24.5533549C25.8641273 24.5376838 25.0041273 25.3260171 24.9813273 26.4786083 24.9591273 27.6057816 25.8303273 28.4860394 26.9921273 28.5087816 28.1621273 28.5317149 29.0875273 27.6808883 29.1079273 26.562506 29.1289273 25.4280705 28.2621273 24.5692171 27.0805273 24.5533549zM27.0855273 27.1658438C26.8295273 27.1580083 26.4129273 26.7996749 26.3875273 26.5636527 26.3649273 26.3522838 26.7535273 25.9434971 27.0071273 25.9058483 27.2569273 25.8685816 27.5649273 26.1873549 28.0395273 26.4604527 27.5993273 26.8065549 27.3363273 27.1732971 27.0855273 27.1658438z"/>
    </g>
    <path fill="#FFDA00" fill-rule="nonzero" d="M34.499901,67 C15.4765541,67 0,51.9719357 0,33.4999039 C0,15.0280643 15.4763561,0 34.499901,0 C53.5234459,0 69,15.0280643 69,33.4999039 C69,51.9717434 53.5232479,67 34.499901,67 Z M34.499901,2.691651 C17.0051222,2.691651 2.7720147,16.5121253 2.7720147,33.4999039 C2.7720147,50.4876824 17.0051222,64.308349 34.499901,64.308349 C51.9946798,64.308349 66.2279853,50.4876824 66.2279853,33.4999039 C66.2279853,16.5121253 51.9946798,2.691651 34.499901,2.691651 Z"/>
    <polygon fill="#FFDA00" fill-rule="nonzero" points="34.376 1.708 38.669 1.629 37.502 65.784 33.209 65.863" transform="rotate(51.916 35.939 33.746)"/>
  </g>
</svg>
