<?xml version="1.0" encoding="utf-8"?>
<!-- Generator: Adobe Illustrator 16.0.0, SVG Export Plug-In . SVG Version: 6.00 Build 0)  -->
<!DOCTYPE svg PUBLIC "-//W3C//DTD SVG 1.1//EN" "http://www.w3.org/Graphics/SVG/1.1/DTD/svg11.dtd">
<svg version="1.1" id="Layer_1" xmlns="http://www.w3.org/2000/svg" xmlns:xlink="http://www.w3.org/1999/xlink" x="0px" y="0px"
	 width="77px" height="77px" viewBox="0 0 77 77" enable-background="new 0 0 77 77" xml:space="preserve">
<g>
	<polygon fill="none" points="0,0 77,0 77,77 0,77 	"/>
	<path fill="#FFFFFF" d="M59.675,21c-4.62,0-8.983,1.821-12.095,4.977l-9.08,8.165L33.624,38.5h0.032l-8.63,7.774
		c-2.053,2.081-4.78,3.22-7.7,3.22c-6,0-10.876-4.912-10.876-10.994c0-6.083,4.876-10.995,10.876-10.995
		c2.919,0,5.646,1.139,7.828,3.351l3.625,3.253l4.845-4.359l-4.042-3.61C26.308,22.821,21.945,21,17.325,21
		C7.764,21,0,28.872,0,38.5C0,48.129,7.764,56,17.325,56c4.62,0,8.983-1.821,12.095-4.977l9.08-8.133l0.032,0.033l4.845-4.424
		h-0.032l8.63-7.774c2.054-2.082,4.781-3.22,7.7-3.22c6,0,10.876,4.912,10.876,10.995c0,6.082-4.876,10.994-10.876,10.994
		c-2.888,0-5.646-1.139-7.828-3.35l-3.657-3.285l-4.845,4.357l4.074,3.644c3.272,3.286,7.604,5.106,12.256,5.106
		c9.562,0,17.325-7.838,17.325-17.5C77,28.807,69.236,21,59.675,21L59.675,21z"/>
</g>
</svg>
