<?xml version="1.0" encoding="utf-8"?>
<!-- Generator: Adobe Illustrator 16.0.0, SVG Export Plug-In . SVG Version: 6.00 Build 0)  -->
<!DOCTYPE svg PUBLIC "-//W3C//DTD SVG 1.1//EN" "http://www.w3.org/Graphics/SVG/1.1/DTD/svg11.dtd">
<svg version="1.1" id="Layer_1" xmlns="http://www.w3.org/2000/svg" xmlns:xlink="http://www.w3.org/1999/xlink" x="0px" y="0px"
	 width="69px" height="67px" viewBox="0 0 69 67" enable-background="new 0 0 69 67" xml:space="preserve">
<path fill="#FFFFFF" d="M30.37,25.092c-1.141,0-2.065,0.925-2.065,2.065c0,1.141,0.924,2.065,2.065,2.065
	c1.14,0,2.065-0.925,2.065-2.065C32.435,26.017,31.51,25.092,30.37,25.092z M61.666,11.112L36.887,0.787
	C36.125,0.5,35.32,0.339,34.506,0.312c-0.814,0.026-1.619,0.187-2.382,0.474L7.344,11.111c-2.313,0.958-3.821,3.217-3.819,5.721
	c0,25.619,14.777,43.33,28.587,49.085c1.524,0.634,3.239,0.634,4.765,0c11.057-4.607,28.598-20.522,28.598-49.085
	C65.477,14.332,63.975,12.076,61.666,11.112z M51.02,33.353h-1.564c-3.68,0-5.521,4.448-2.92,7.05l1.105,1.107
	c0.809,0.806,0.809,2.113,0,2.92c-0.805,0.808-2.113,0.808-2.92,0l-1.105-1.107c-2.602-2.602-7.051-0.759-7.051,2.921v1.564
	c0,1.141-0.924,2.065-2.064,2.065s-2.065-0.925-2.065-2.065v-1.564c0-3.68-4.449-5.522-7.051-2.921l-1.105,1.107
	c-0.807,0.808-2.114,0.808-2.921,0c-0.807-0.807-0.807-2.114,0-2.92l1.107-1.107c2.602-2.602,0.758-7.05-2.921-7.05h-1.564
	c-1.14,0-2.065-0.925-2.065-2.065c0-1.14,0.925-2.064,2.065-2.064h1.564c3.679,0,5.522-4.449,2.921-7.051l-1.107-1.106
	c-0.807-0.806-0.807-2.114,0-2.921c0.807-0.806,2.114-0.806,2.921,0l1.105,1.108c2.602,2.602,7.051,0.758,7.051-2.921v-1.564
	c0-1.141,0.924-2.064,2.065-2.064s2.064,0.924,2.064,2.064v1.564c0,3.679,4.449,5.522,7.051,2.921l1.105-1.108
	c0.807-0.806,2.115-0.806,2.92,0c0.809,0.808,0.809,2.115,0,2.921l-1.105,1.106c-2.602,2.603-0.76,7.051,2.92,7.051h1.564
	c1.141,0,2.064,0.924,2.064,2.064C53.084,32.428,52.16,33.353,51.02,33.353z M38.629,33.353c-1.141,0-2.064,0.924-2.064,2.064
	s0.924,2.065,2.064,2.065s2.066-0.925,2.066-2.065S39.77,33.353,38.629,33.353z"/>
</svg>
