<svg xmlns="http://www.w3.org/2000/svg" width="177" height="177" viewBox="0 0 177 177">
  <defs>
    <filter id="qr-a">
      <feColorMatrix in="SourceGraphic" values="0 0 0 0 1.000000 0 0 0 0 1.000000 0 0 0 0 1.000000 0 0 0 1.000000 0"/>
    </filter>
  </defs>
  <g filter="url(#qr-a)">
    <path d="M0 78.6666667L78.6666667 78.6666667 78.6666667 0 0 0 0 78.6666667zM19.6666667 19.6666667L59 19.6666667 59 59 19.6666667 59 19.6666667 19.6666667zM0 177L78.6666667 177 78.6666667 98.3333333 0 98.3333333 0 177zM19.6666667 118L59 118 59 157.333333 19.6666667 157.333333 19.6666667 118zM98.3333333 0L98.3333333 78.6666667 177 78.6666667 177 0 98.3333333 0zM157.333333 59L118 59 118 19.6666667 157.333333 19.6666667 157.333333 59z"/>
    <rect width="19.667" height="19.667" x="157.333" y="157.333"/>
    <rect width="19.667" height="19.667" x="98.333" y="98.333"/>
    <rect width="19.667" height="19.667" x="118" y="118"/>
    <rect width="19.667" height="19.667" x="98.333" y="137.667"/>
    <rect width="19.667" height="19.667" x="118" y="157.333"/>
    <rect width="19.667" height="19.667" x="137.667" y="137.667"/>
    <rect width="19.667" height="19.667" x="137.667" y="98.333"/>
    <rect width="19.667" height="19.667" x="157.333" y="118"/>
  </g>
</svg>
