<?xml version="1.0" encoding="utf-8"?>
<!-- Generator: Adobe Illustrator 16.0.0, SVG Export Plug-In . SVG Version: 6.00 Build 0)  -->
<!DOCTYPE svg PUBLIC "-//W3C//DTD SVG 1.1//EN" "http://www.w3.org/Graphics/SVG/1.1/DTD/svg11.dtd">
<svg version="1.1" id="Capa_1" xmlns="http://www.w3.org/2000/svg" xmlns:xlink="http://www.w3.org/1999/xlink" x="0px" y="0px"
	 width="444px" height="442px" viewBox="0 0 444 442" enable-background="new 0 0 444 442" xml:space="preserve">
<linearGradient id="SVGID_1_" gradientUnits="userSpaceOnUse" x1="10.1738" y1="219" x2="437.8252" y2="219">
	<stop  offset="0.0013" style="stop-color:#58BA4A"/>
	<stop  offset="1" style="stop-color:#58BA4A"/>
</linearGradient>
<path fill="url(#SVGID_1_)" d="M227.128,2.867c-116.363,0-210.695,94.332-210.695,210.696c0,57.752,30.575,109.373,30.575,109.373
	L10.174,435.133l115.448-36.894c0,0,42.859,26.02,101.506,26.02c116.365,0,210.697-94.332,210.697-210.696
	C437.825,97.199,343.493,2.867,227.128,2.867z M227.128,390.548c-54.174,0-97.538-29.28-97.538-29.28l-66.547,21.715l21.593-64.428
	c0,0-34.491-47.749-34.491-104.992c0-97.746,79.238-176.984,176.983-176.984c97.746,0,176.986,79.238,176.986,176.984
	C404.114,311.309,324.874,390.548,227.128,390.548z"/>
<linearGradient id="SVGID_2_" gradientUnits="userSpaceOnUse" x1="126.2212" y1="215.5967" x2="335.5928" y2="215.5967">
	<stop  offset="0.0013" style="stop-color:#58BA4A"/>
	<stop  offset="1" style="stop-color:#58BA4A"/>
</linearGradient>
<path fill="url(#SVGID_2_)" d="M146.896,121.835c0,0,5.693-3.608,8.661-3.608s16.599,0,16.599,0s4.451,0.775,6.495,5.413
	s16.039,37.519,17.08,40.055s3.757,8.812-0.601,14.434s-13.472,16.118-13.472,16.118s-3.608,3.249-0.481,8.42
	s14.125,22.234,28.508,35.124s31.997,22.372,40.776,25.259c8.781,2.887,10.705-0.962,14.072-5.292
	c3.369-4.33,13.834-17.561,13.834-17.561s3.609-5.292,10.705-2.045c7.098,3.247,41.617,19.967,41.617,19.967
	s4.209,0.723,4.449,5.413s3.131,18.728-9.381,32.233s-39.121,19.757-51.719,16.234c-12.6-3.522-54.254-14.42-81.421-39.754
	s-49.167-52.001-58.167-71.667c-9-19.667-8.5-31.333-8-36.833S129.841,132.759,146.896,121.835z"/>
</svg>
